<?xml version="1.0" encoding="UTF-8" ?>
<!DOCTYPE svg PUBLIC "-//W3C//DTD SVG 1.1//EN" "http://www.w3.org/Graphics/SVG/1.1/DTD/svg11.dtd">
<svg width="529pt" height="204pt" viewBox="0 0 529 204" version="1.1" xmlns="http://www.w3.org/2000/svg">
<g id="#73726fff">
</g>
<g id="#ffffffff">
<path fill="#ffffff" opacity="1.00" d=" M 75.31 13.51 C 80.01 7.60 88.26 6.23 95.34 7.44 C 103.11 8.48 110.10 12.89 115.27 18.65 C 119.85 23.82 122.69 31.06 120.60 37.93 C 116.90 51.43 107.93 64.92 93.93 69.13 C 92.25 69.56 90.76 70.48 89.95 72.06 C 96.00 74.00 101.53 77.56 105.27 82.76 C 113.08 92.93 119.79 104.11 123.97 116.26 C 129.50 132.56 128.72 151.72 118.54 166.08 C 119.72 166.87 120.90 167.66 122.09 168.45 C 121.80 168.85 121.24 169.63 120.95 170.03 C 119.78 169.29 118.61 168.56 117.45 167.82 C 111.16 175.38 104.28 182.50 96.50 188.53 C 92.88 191.42 87.56 193.26 83.24 190.79 C 81.11 189.82 79.92 187.73 78.74 185.83 C 73.45 185.85 68.20 185.12 62.92 185.02 C 58.33 184.80 57.26 191.08 52.87 191.57 C 46.99 192.75 41.89 188.84 37.66 185.31 C 31.92 180.94 27.73 175.01 22.78 169.86 C 20.68 164.89 17.55 160.43 15.60 155.40 C 10.41 143.05 8.85 129.35 10.46 116.10 C 11.21 110.63 13.95 105.62 17.49 101.46 C 27.31 89.82 39.13 79.63 52.90 72.95 C 66.23 66.01 80.87 61.18 92.58 51.48 C 97.59 47.08 102.62 41.98 104.27 35.31 C 105.29 31.26 103.83 26.09 99.60 24.53 C 92.05 21.13 83.83 26.29 76.13 23.95 C 71.78 22.21 72.73 16.36 75.31 13.51 M 75.57 17.70 C 74.75 19.39 75.28 22.07 77.50 22.24 C 85.12 23.41 93.09 19.05 100.42 22.61 C 105.40 24.74 107.71 30.79 106.34 35.87 C 104.36 43.88 97.97 49.80 91.76 54.78 C 79.75 64.01 65.16 68.72 51.96 75.87 C 40.83 81.46 31.09 89.53 22.68 98.65 C 18.45 103.35 14.10 108.47 12.90 114.88 C 9.63 133.08 14.55 151.92 24.10 167.51 C 30.85 163.61 38.49 160.26 46.47 161.08 C 44.92 163.44 41.92 163.05 39.51 163.61 C 34.51 164.38 29.78 166.41 25.68 169.36 C 28.74 174.16 32.94 178.05 36.98 182.00 C 41.26 185.61 45.89 190.05 51.92 189.71 C 56.11 188.88 57.40 183.08 61.94 182.94 C 67.93 182.81 73.89 183.91 79.89 183.56 C 81.25 185.85 82.49 188.76 85.35 189.48 C 90.03 190.86 94.44 187.79 97.83 184.90 C 104.07 179.29 110.39 173.62 115.29 166.77 C 111.68 165.42 107.98 164.07 104.08 163.98 C 102.14 163.73 99.98 164.14 98.23 163.08 C 98.67 161.33 100.72 161.92 102.00 161.70 C 107.08 161.60 112.00 163.11 116.68 164.96 C 117.84 163.10 119.01 161.24 120.16 159.38 C 114.82 158.68 109.43 158.12 104.04 158.64 C 102.05 158.54 99.19 159.61 98.40 157.01 C 105.91 155.79 113.49 156.46 121.01 157.10 C 124.09 150.90 125.33 143.86 125.37 136.97 C 125.34 122.03 119.31 107.85 111.49 95.39 C 107.42 89.26 103.67 82.64 97.70 78.13 C 95.15 76.20 91.94 75.48 89.27 73.76 C 87.45 72.61 88.66 70.54 88.87 68.91 C 92.82 67.13 97.14 66.15 100.78 63.73 C 110.26 57.74 115.90 47.24 118.71 36.66 C 120.38 30.45 117.37 24.19 113.36 19.59 C 106.80 12.40 96.79 7.90 86.98 9.48 C 82.24 10.21 77.06 12.79 75.57 17.70 Z" />
<path fill="#ffffff" opacity="1.00" d=" M 11.22 13.31 C 11.88 13.70 11.88 13.70 11.22 13.31 Z" />
<path fill="#ffffff" opacity="1.00" d=" M 31.34 13.22 C 31.76 13.86 31.76 13.86 31.34 13.22 Z" />
<path fill="#ffffff" opacity="1.00" d=" M 51.30 13.17 C 51.69 13.83 51.69 13.83 51.30 13.17 Z" />
<path fill="#ffffff" opacity="1.00" d=" M 71.22 13.31 C 71.74 13.87 71.74 13.87 71.22 13.31 Z" />
<path fill="#ffffff" opacity="1.00" d=" M 91.31 13.20 C 91.81 13.79 91.81 13.79 91.31 13.20 Z" />
<path fill="#ffffff" opacity="1.00" d=" M 131.25 13.26 C 131.86 13.72 131.86 13.72 131.25 13.26 Z" />
<path fill="#ffffff" opacity="1.00" d=" M 151.31 13.23 C 151.77 13.83 151.77 13.83 151.31 13.23 Z" />
<path fill="#ffffff" opacity="1.00" d=" M 171.26 13.26 C 171.82 13.78 171.82 13.78 171.26 13.26 Z" />
<path fill="#ffffff" opacity="1.00" d=" M 191.31 13.26 C 191.76 13.88 191.76 13.88 191.31 13.26 Z" />
<path fill="#ffffff" opacity="1.00" d=" M 211.27 13.29 C 211.82 13.81 211.82 13.81 211.27 13.29 Z" />
<path fill="#ffffff" opacity="1.00" d=" M 231.25 13.24 C 231.72 13.84 231.72 13.84 231.25 13.24 Z" />
<path fill="#ffffff" opacity="1.00" d=" M 251.20 13.26 C 251.80 13.73 251.80 13.73 251.20 13.26 Z" />
<path fill="#ffffff" opacity="1.00" d=" M 271.21 13.27 C 271.74 13.83 271.74 13.83 271.21 13.27 Z" />
<path fill="#ffffff" opacity="1.00" d=" M 291.24 13.17 C 291.77 13.72 291.77 13.72 291.24 13.17 Z" />
<path fill="#ffffff" opacity="1.00" d=" M 311.23 13.30 C 311.84 13.76 311.84 13.76 311.23 13.30 Z" />
<path fill="#ffffff" opacity="1.00" d=" M 331.28 13.21 C 331.83 13.74 331.83 13.74 331.28 13.21 Z" />
<path fill="#ffffff" opacity="1.00" d=" M 351.29 13.23 C 351.74 13.85 351.74 13.85 351.29 13.23 Z" />
<path fill="#ffffff" opacity="1.00" d=" M 371.22 13.31 C 371.74 13.87 371.74 13.87 371.22 13.31 Z" />
<path fill="#ffffff" opacity="1.00" d=" M 391.26 13.24 C 391.76 13.83 391.76 13.83 391.26 13.24 Z" />
<path fill="#ffffff" opacity="1.00" d=" M 411.24 13.24 C 411.74 13.82 411.74 13.82 411.24 13.24 Z" />
<path fill="#ffffff" opacity="1.00" d=" M 431.26 13.30 C 431.87 13.77 431.87 13.77 431.26 13.30 Z" />
<path fill="#ffffff" opacity="1.00" d=" M 451.29 13.25 C 451.76 13.85 451.76 13.85 451.29 13.25 Z" />
<path fill="#ffffff" opacity="1.00" d=" M 471.17 13.27 C 471.76 13.75 471.76 13.75 471.17 13.27 Z" />
<path fill="#ffffff" opacity="1.00" d=" M 491.25 13.26 C 491.81 13.78 491.81 13.78 491.25 13.26 Z" />
<path fill="#ffffff" opacity="1.00" d=" M 511.25 13.23 C 511.79 13.77 511.79 13.77 511.25 13.23 Z" />
<path fill="#ffffff" opacity="1.00" d=" M 11.22 33.30 C 11.80 33.80 11.80 33.80 11.22 33.30 Z" />
<path fill="#ffffff" opacity="1.00" d=" M 31.17 33.30 C 31.72 33.84 31.72 33.84 31.17 33.30 Z" />
<path fill="#ffffff" opacity="1.00" d=" M 51.28 33.19 C 51.80 33.75 51.80 33.75 51.28 33.19 Z" />
<path fill="#ffffff" opacity="1.00" d=" M 71.26 33.22 C 71.80 33.76 71.80 33.76 71.26 33.22 Z" />
<path fill="#ffffff" opacity="1.00" d=" M 91.23 33.27 C 91.80 33.79 91.80 33.79 91.23 33.27 Z" />
<path fill="#ffffff" opacity="1.00" d=" M 111.27 33.25 C 111.81 33.80 111.81 33.80 111.27 33.25 Z" />
<path fill="#ffffff" opacity="1.00" d=" M 131.32 33.24 C 131.79 33.85 131.79 33.85 131.32 33.24 Z" />
<path fill="#ffffff" opacity="1.00" d=" M 151.28 33.24 C 151.87 33.73 151.87 33.73 151.28 33.24 Z" />
<path fill="#ffffff" opacity="1.00" d=" M 171.21 33.33 C 171.85 33.76 171.85 33.76 171.21 33.33 Z" />
<path fill="#ffffff" opacity="1.00" d=" M 191.30 33.27 C 191.84 33.80 191.84 33.80 191.30 33.27 Z" />
<path fill="#ffffff" opacity="1.00" d=" M 211.35 33.22 C 211.85 33.81 211.85 33.81 211.35 33.22 Z" />
<path fill="#ffffff" opacity="1.00" d=" M 231.29 33.23 C 231.69 33.88 231.69 33.88 231.29 33.23 Z" />
<path fill="#ffffff" opacity="1.00" d=" M 251.20 33.25 C 251.79 33.74 251.79 33.74 251.20 33.25 Z" />
<path fill="#ffffff" opacity="1.00" d=" M 271.30 33.29 C 271.83 33.84 271.83 33.84 271.30 33.29 Z" />
<path fill="#ffffff" opacity="1.00" d=" M 291.23 33.24 C 291.79 33.77 291.79 33.77 291.23 33.24 Z" />
<path fill="#ffffff" opacity="1.00" d=" M 311.26 33.25 C 311.80 33.79 311.80 33.79 311.26 33.25 Z" />
<path fill="#ffffff" opacity="1.00" d=" M 331.27 33.25 C 331.78 33.82 331.78 33.82 331.27 33.25 Z" />
<path fill="#ffffff" opacity="1.00" d=" M 351.18 33.26 C 351.79 33.72 351.79 33.72 351.18 33.26 Z" />
<path fill="#ffffff" opacity="1.00" d=" M 371.28 33.28 C 371.82 33.82 371.82 33.82 371.28 33.28 Z" />
<path fill="#ffffff" opacity="1.00" d=" M 391.25 33.35 C 391.84 33.83 391.84 33.83 391.25 33.35 Z" />
<path fill="#ffffff" opacity="1.00" d=" M 411.24 33.32 C 411.83 33.81 411.83 33.81 411.24 33.32 Z" />
<path fill="#ffffff" opacity="1.00" d=" M 431.24 33.27 C 431.87 33.70 431.87 33.70 431.24 33.27 Z" />
<path fill="#ffffff" opacity="1.00" d=" M 451.25 33.22 C 451.74 33.80 451.74 33.80 451.25 33.22 Z" />
<path fill="#ffffff" opacity="1.00" d=" M 471.30 33.22 C 471.76 33.83 471.76 33.83 471.30 33.22 Z" />
<path fill="#ffffff" opacity="1.00" d=" M 491.29 33.25 C 491.73 33.87 491.73 33.87 491.29 33.25 Z" />
<path fill="#ffffff" opacity="1.00" d=" M 511.26 33.25 C 511.75 33.83 511.75 33.83 511.26 33.25 Z" />
<path fill="#ffffff" opacity="1.00" d=" M 140.17 38.12 C 141.75 38.01 143.34 38.19 144.92 38.30 C 146.28 46.16 144.90 54.12 145.08 62.02 C 145.29 72.69 145.10 83.37 145.21 94.04 C 145.87 110.05 145.07 126.06 144.29 142.05 C 144.01 148.38 145.73 155.41 142.15 161.10 C 140.78 161.01 139.41 160.93 138.05 160.85 C 132.98 143.19 139.38 124.82 136.80 106.90 C 136.27 99.00 137.30 91.07 138.10 83.21 C 136.97 69.49 137.35 55.64 138.97 41.97 C 139.19 40.65 139.13 39.13 140.17 38.12 Z" />
<path fill="#ffffff" opacity="1.00" d=" M 282.27 49.12 C 285.68 47.13 290.65 47.94 292.72 51.49 C 294.07 53.10 293.46 55.23 293.12 57.07 C 292.03 62.15 291.10 67.28 290.54 72.45 C 290.71 72.67 291.05 73.10 291.22 73.32 C 290.82 74.92 290.49 76.54 290.17 78.16 C 295.76 78.05 301.45 77.20 306.97 78.46 C 309.00 78.90 310.05 81.07 310.11 83.00 C 310.45 86.25 310.12 90.50 306.79 92.12 C 301.04 92.98 295.19 92.99 289.43 93.85 C 288.23 103.50 288.35 113.24 288.57 122.94 C 288.61 125.66 289.20 129.20 292.16 130.22 C 295.67 131.70 300.39 132.20 302.19 136.07 C 304.46 141.19 299.35 147.14 293.98 146.46 C 288.09 145.66 281.89 143.58 277.70 139.19 C 273.20 131.41 271.70 122.16 272.54 113.25 C 272.16 113.39 271.39 113.68 271.00 113.82 C 272.71 112.96 272.58 111.05 272.81 109.49 C 273.23 104.79 273.49 100.06 273.30 95.34 C 270.15 95.90 267.05 96.74 263.90 97.32 C 259.49 97.99 254.02 94.88 254.08 90.02 C 253.77 86.82 256.24 84.16 258.99 82.95 C 263.71 80.44 269.18 80.60 274.34 79.89 C 274.63 72.50 275.03 65.02 276.97 57.85 C 277.94 54.58 279.41 51.18 282.27 49.12 Z" />
<path fill="#ffffff" opacity="1.00" d=" M 194.18 51.09 C 197.86 49.57 203.35 49.59 205.53 53.54 C 211.08 63.66 217.31 73.44 221.99 84.02 C 224.94 91.37 228.74 98.33 232.74 105.15 C 237.85 116.28 240.42 128.34 244.08 139.99 C 244.89 143.11 246.37 147.26 243.47 149.75 C 239.66 151.87 234.82 151.04 231.24 148.81 C 229.93 143.99 228.09 139.34 226.33 134.68 C 224.12 128.99 224.47 122.45 220.86 117.30 C 208.92 118.39 196.78 119.01 185.22 122.47 C 183.84 129.48 182.12 136.42 180.13 143.28 C 179.55 145.59 177.30 147.07 174.98 147.12 C 171.83 147.46 167.53 147.35 166.02 143.99 C 165.77 135.46 169.91 127.51 170.00 119.00 C 170.89 106.96 175.23 95.57 179.17 84.27 C 181.48 75.77 185.54 67.91 188.82 59.77 C 190.08 56.62 190.74 52.66 194.18 51.09 M 195.42 84.58 C 193.87 91.72 190.14 98.16 188.76 105.37 C 196.87 103.13 205.40 103.68 213.72 102.82 C 210.56 92.20 204.99 82.57 199.95 72.78 C 198.13 76.58 196.40 80.46 195.42 84.58 Z" />
<path fill="#ffffff" opacity="1.00" d=" M 11.30 53.21 C 11.72 53.85 11.72 53.85 11.30 53.21 Z" />
<path fill="#ffffff" opacity="1.00" d=" M 31.22 53.23 C 31.74 53.79 31.74 53.79 31.22 53.23 Z" />
<path fill="#ffffff" opacity="1.00" d=" M 51.18 53.33 C 51.83 53.74 51.83 53.74 51.18 53.33 Z" />
<path fill="#ffffff" opacity="1.00" d=" M 71.22 53.23 C 71.74 53.80 71.74 53.80 71.22 53.23 Z" />
<path fill="#ffffff" opacity="1.00" d=" M 131.25 53.29 C 131.79 53.83 131.79 53.83 131.25 53.29 Z" />
<path fill="#ffffff" opacity="1.00" d=" M 151.30 53.27 C 151.70 53.92 151.70 53.92 151.30 53.27 Z" />
<path fill="#ffffff" opacity="1.00" d=" M 171.21 53.24 C 171.80 53.74 171.80 53.74 171.21 53.24 Z" />
<path fill="#ffffff" opacity="1.00" d=" M 211.24 53.32 C 211.81 53.83 211.81 53.83 211.24 53.32 Z" />
<path fill="#ffffff" opacity="1.00" d=" M 231.29 53.26 C 231.85 53.78 231.85 53.78 231.29 53.26 Z" />
<path fill="#ffffff" opacity="1.00" d=" M 251.24 53.24 C 251.73 53.83 251.73 53.83 251.24 53.24 Z" />
<path fill="#ffffff" opacity="1.00" d=" M 271.21 53.30 C 271.78 53.81 271.78 53.81 271.21 53.30 Z" />
<path fill="#ffffff" opacity="1.00" d=" M 311.28 53.22 C 311.78 53.81 311.78 53.81 311.28 53.22 Z" />
<path fill="#ffffff" opacity="1.00" d=" M 331.33 53.24 C 331.81 53.83 331.81 53.83 331.33 53.24 Z" />
<path fill="#ffffff" opacity="1.00" d=" M 351.28 53.27 C 351.86 53.77 351.86 53.77 351.28 53.27 Z" />
<path fill="#ffffff" opacity="1.00" d=" M 371.23 53.29 C 371.83 53.77 371.83 53.77 371.23 53.29 Z" />
<path fill="#ffffff" opacity="1.00" d=" M 391.16 53.24 C 391.74 53.74 391.74 53.74 391.16 53.24 Z" />
<path fill="#ffffff" opacity="1.00" d=" M 411.33 53.21 C 411.82 53.79 411.82 53.79 411.33 53.21 Z" />
<path fill="#ffffff" opacity="1.00" d=" M 431.21 53.29 C 431.78 53.79 431.78 53.79 431.21 53.29 Z" />
<path fill="#ffffff" opacity="1.00" d=" M 451.23 53.26 C 451.84 53.73 451.84 53.73 451.23 53.26 Z" />
<path fill="#ffffff" opacity="1.00" d=" M 471.25 53.20 C 471.75 53.78 471.75 53.78 471.25 53.20 Z" />
<path fill="#ffffff" opacity="1.00" d=" M 491.29 53.20 C 491.71 53.84 491.71 53.84 491.29 53.20 Z" />
<path fill="#ffffff" opacity="1.00" d=" M 511.23 53.23 C 511.77 53.77 511.77 53.77 511.23 53.23 Z" />
<path fill="#ffffff" opacity="1.00" d=" M 401.59 64.96 C 402.89 61.35 404.95 58.09 406.77 54.74 C 411.82 55.36 417.68 55.41 421.40 59.41 C 424.82 63.99 422.86 70.43 419.68 74.59 C 416.26 75.44 412.79 76.62 409.23 76.28 C 405.28 73.96 400.92 70.01 401.59 64.96 Z" />
<path fill="#ffffff" opacity="1.00" d=" M 11.22 73.28 C 11.83 73.74 11.83 73.74 11.22 73.28 Z" />
<path fill="#ffffff" opacity="1.00" d=" M 31.32 73.16 C 31.72 73.82 31.72 73.82 31.32 73.16 Z" />
<path fill="#ffffff" opacity="1.00" d=" M 71.22 73.18 C 71.76 73.73 71.76 73.73 71.22 73.18 Z" />
<path fill="#ffffff" opacity="1.00" d=" M 111.25 73.29 C 111.87 73.73 111.87 73.73 111.25 73.29 Z" />
<path fill="#ffffff" opacity="1.00" d=" M 131.19 73.30 C 131.81 73.75 131.81 73.75 131.19 73.30 Z" />
<path fill="#ffffff" opacity="1.00" d=" M 151.21 73.31 C 151.79 73.80 151.79 73.80 151.21 73.31 Z" />
<path fill="#ffffff" opacity="1.00" d=" M 171.26 73.24 C 171.75 73.83 171.75 73.83 171.26 73.24 Z" />
<path fill="#ffffff" opacity="1.00" d=" M 231.20 73.30 C 231.80 73.78 231.80 73.78 231.20 73.30 Z" />
<path fill="#ffffff" opacity="1.00" d=" M 251.32 73.19 C 251.75 73.83 251.75 73.83 251.32 73.19 Z" />
<path fill="#ffffff" opacity="1.00" d=" M 271.29 73.16 C 271.72 73.79 271.72 73.79 271.29 73.16 Z" />
<path fill="#ffffff" opacity="1.00" d=" M 311.24 73.28 C 311.81 73.79 311.81 73.79 311.24 73.28 Z" />
<path fill="#ffffff" opacity="1.00" d=" M 331.31 73.22 C 331.69 73.89 331.69 73.89 331.31 73.22 Z" />
<path fill="#ffffff" opacity="1.00" d=" M 351.22 73.28 C 351.72 73.85 351.72 73.85 351.22 73.28 Z" />
<path fill="#ffffff" opacity="1.00" d=" M 371.25 73.24 C 371.76 73.80 371.76 73.80 371.25 73.24 Z" />
<path fill="#ffffff" opacity="1.00" d=" M 391.18 73.26 C 391.76 73.75 391.76 73.75 391.18 73.26 Z" />
<path fill="#ffffff" opacity="1.00" d=" M 431.21 73.29 C 431.80 73.77 431.80 73.77 431.21 73.29 Z" />
<path fill="#ffffff" opacity="1.00" d=" M 451.28 73.18 C 451.71 73.81 451.71 73.81 451.28 73.18 Z" />
<path fill="#ffffff" opacity="1.00" d=" M 471.21 73.35 C 471.86 73.76 471.86 73.76 471.21 73.35 Z" />
<path fill="#ffffff" opacity="1.00" d=" M 491.18 73.32 C 491.82 73.75 491.82 73.75 491.18 73.32 Z" />
<path fill="#ffffff" opacity="1.00" d=" M 511.32 73.21 C 511.82 73.78 511.82 73.78 511.32 73.21 Z" />
<path fill="#ffffff" opacity="1.00" d=" M 478.80 79.78 C 483.14 79.21 486.18 74.30 490.92 75.74 C 495.99 77.99 497.65 83.99 499.30 88.82 C 501.35 98.23 501.74 108.17 505.94 117.01 C 508.27 121.32 512.43 124.17 515.91 127.49 C 517.65 133.44 512.32 138.36 507.03 139.77 C 501.57 136.59 496.39 132.53 493.60 126.70 C 490.88 132.68 486.53 137.66 481.40 141.69 C 475.37 142.89 468.89 144.31 462.95 142.04 C 458.95 139.49 454.86 136.87 451.53 133.47 C 444.36 124.16 446.45 111.20 451.36 101.36 C 454.88 95.16 458.45 88.57 464.37 84.31 C 469.04 82.42 473.88 80.89 478.80 79.78 M 470.40 99.43 C 465.54 105.11 462.73 112.49 462.51 119.97 C 465.08 123.35 467.92 127.01 471.99 128.59 C 476.59 128.05 479.11 123.71 480.93 119.94 C 482.96 115.46 485.67 111.05 486.04 106.03 C 485.56 101.93 484.17 97.99 483.59 93.89 C 478.63 93.70 473.66 95.63 470.40 99.43 Z" />
<path fill="#ffffff" opacity="1.00" d=" M 344.18 90.98 C 348.00 88.25 351.47 84.68 356.08 83.33 C 362.43 82.29 369.16 83.40 375.03 85.92 C 378.79 89.85 377.68 97.18 373.35 100.31 C 370.68 102.00 367.59 100.89 364.92 99.88 C 361.26 98.39 356.76 99.02 353.73 101.60 C 351.23 103.73 349.03 106.19 346.68 108.48 C 346.84 112.35 346.79 116.23 346.63 120.10 C 346.30 126.45 347.71 132.71 347.99 139.03 C 348.02 142.06 346.70 145.61 343.66 146.78 C 341.26 147.98 338.53 147.33 336.00 147.10 C 331.08 143.34 330.64 136.79 330.41 131.09 C 330.30 122.03 330.50 112.96 329.83 103.93 C 329.48 99.74 327.64 95.55 328.77 91.34 C 330.28 87.35 335.17 85.90 339.02 86.92 C 341.16 87.62 342.54 89.54 344.18 90.98 Z" />
<path fill="#ffffff" opacity="1.00" d=" M 401.90 92.67 C 403.81 88.21 409.45 87.71 413.54 89.09 C 414.76 90.09 416.19 90.90 417.18 92.16 C 417.63 96.58 416.14 100.86 415.66 105.21 C 414.71 115.15 413.63 125.11 413.95 135.10 C 413.78 137.57 412.40 139.86 410.58 141.48 C 407.54 144.15 402.25 143.45 400.09 139.98 C 397.19 135.25 397.14 129.43 397.38 124.06 C 397.90 113.51 398.84 102.83 401.90 92.67 Z" />
<path fill="#ffffff" opacity="1.00" d=" M 11.27 93.22 C 11.81 93.76 11.81 93.76 11.27 93.22 Z" />
<path fill="#ffffff" opacity="1.00" d=" M 31.21 93.30 C 31.83 93.75 31.83 93.75 31.21 93.30 Z" />
<path fill="#ffffff" opacity="1.00" d=" M 51.18 93.30 C 51.82 93.71 51.82 93.71 51.18 93.30 Z" />
<path fill="#ffffff" opacity="1.00" d=" M 71.25 93.16 C 71.72 93.77 71.72 93.77 71.25 93.16 Z" />
<path fill="#ffffff" opacity="1.00" d=" M 91.28 93.18 C 91.69 93.83 91.69 93.83 91.28 93.18 Z" />
<path fill="#ffffff" opacity="1.00" d=" M 131.20 93.29 C 131.85 93.71 131.85 93.71 131.20 93.29 Z" />
<path fill="#ffffff" opacity="1.00" d=" M 151.19 93.32 C 151.84 93.72 151.84 93.72 151.19 93.32 Z" />
<path fill="#ffffff" opacity="1.00" d=" M 171.22 93.22 C 171.79 93.73 171.79 93.73 171.22 93.22 Z" />
<path fill="#ffffff" opacity="1.00" d=" M 231.25 93.25 C 231.85 93.72 231.85 93.72 231.25 93.25 Z" />
<path fill="#ffffff" opacity="1.00" d=" M 251.27 93.26 C 251.81 93.80 251.81 93.80 251.27 93.26 Z" />
<path fill="#ffffff" opacity="1.00" d=" M 311.24 93.29 C 311.84 93.75 311.84 93.75 311.24 93.29 Z" />
<path fill="#ffffff" opacity="1.00" d=" M 391.24 93.25 C 391.82 93.75 391.82 93.75 391.24 93.25 Z" />
<path fill="#ffffff" opacity="1.00" d=" M 431.35 93.22 C 431.78 93.85 431.78 93.85 431.35 93.22 Z" />
<path fill="#ffffff" opacity="1.00" d=" M 451.30 93.26 C 451.74 93.89 451.74 93.89 451.30 93.26 Z" />
<path fill="#ffffff" opacity="1.00" d=" M 511.28 93.25 C 511.74 93.86 511.74 93.86 511.28 93.25 Z" />
<path fill="#ffffff" opacity="1.00" d=" M 39.22 108.19 C 41.17 106.56 44.13 105.51 46.56 106.68 C 49.75 108.60 50.40 112.61 52.70 115.29 C 54.47 116.72 56.88 116.31 59.00 116.50 C 67.97 116.55 76.94 117.17 85.92 116.88 C 87.69 113.63 87.84 108.35 92.08 107.30 C 95.83 106.12 99.18 109.04 100.91 112.08 C 103.00 115.87 104.25 120.04 106.05 123.97 C 106.34 125.20 107.84 127.19 105.92 127.92 C 102.28 122.84 101.56 116.18 97.69 111.21 C 96.23 109.15 93.17 108.61 91.08 110.03 C 89.21 113.08 89.34 118.47 84.97 119.11 C 77.29 119.32 69.61 118.71 61.93 118.70 C 58.98 118.54 55.93 118.84 53.08 117.94 C 49.17 116.09 48.90 110.95 45.56 108.51 C 42.78 107.22 40.35 109.83 39.18 112.07 C 36.34 117.59 34.78 123.66 32.10 129.24 C 31.55 129.53 30.45 130.11 29.90 130.40 C 30.90 125.94 32.90 121.82 34.52 117.57 C 35.83 114.34 36.92 110.89 39.22 108.19 Z" />
<path fill="#ffffff" opacity="1.00" d=" M 31.30 113.19 C 31.75 113.82 31.75 113.82 31.30 113.19 Z" />
<path fill="#ffffff" opacity="1.00" d=" M 71.32 113.23 C 71.85 113.78 71.85 113.78 71.32 113.23 Z" />
<path fill="#ffffff" opacity="1.00" d=" M 91.25 113.28 C 91.83 113.77 91.83 113.77 91.25 113.28 Z" />
<path fill="#ffffff" opacity="1.00" d=" M 111.28 113.27 C 111.79 113.84 111.79 113.84 111.28 113.27 Z" />
<path fill="#ffffff" opacity="1.00" d=" M 131.26 113.20 C 131.79 113.75 131.79 113.75 131.26 113.20 Z" />
<path fill="#ffffff" opacity="1.00" d=" M 151.23 113.32 C 151.88 113.71 151.88 113.71 151.23 113.32 Z" />
<path fill="#ffffff" opacity="1.00" d=" M 251.22 113.25 C 251.78 113.77 251.78 113.77 251.22 113.25 Z" />
<path fill="#ffffff" opacity="1.00" d=" M 291.26 113.28 C 291.84 113.78 291.84 113.78 291.26 113.28 Z" />
<path fill="#ffffff" opacity="1.00" d=" M 311.28 113.28 C 311.86 113.78 311.86 113.78 311.28 113.28 Z" />
<path fill="#ffffff" opacity="1.00" d=" M 351.31 113.24 C 351.82 113.81 351.82 113.81 351.31 113.24 Z" />
<path fill="#ffffff" opacity="1.00" d=" M 371.23 113.29 C 371.85 113.73 371.85 113.73 371.23 113.29 Z" />
<path fill="#ffffff" opacity="1.00" d=" M 391.25 113.29 C 391.79 113.82 391.79 113.82 391.25 113.29 Z" />
<path fill="#ffffff" opacity="1.00" d=" M 431.21 113.26 C 431.75 113.79 431.75 113.79 431.21 113.26 Z" />
<path fill="#ffffff" opacity="1.00" d=" M 471.30 113.27 C 471.81 113.84 471.81 113.84 471.30 113.27 Z" />
<path fill="#ffffff" opacity="1.00" d=" M 511.28 113.24 C 511.75 113.84 511.75 113.84 511.28 113.24 Z" />
<path fill="#ffffff" opacity="1.00" d=" M 31.17 133.27 C 31.77 133.75 31.77 133.75 31.17 133.27 Z" />
<path fill="#ffffff" opacity="1.00" d=" M 51.29 133.21 C 51.76 133.81 51.76 133.81 51.29 133.21 Z" />
<path fill="#ffffff" opacity="1.00" d=" M 71.32 133.16 C 71.72 133.81 71.72 133.81 71.32 133.16 Z" />
<path fill="#ffffff" opacity="1.00" d=" M 91.21 133.32 C 91.85 133.74 91.85 133.74 91.21 133.32 Z" />
<path fill="#ffffff" opacity="1.00" d=" M 111.25 133.30 C 111.80 133.83 111.80 133.83 111.25 133.30 Z" />
<path fill="#ffffff" opacity="1.00" d=" M 131.25 133.21 C 131.72 133.81 131.72 133.81 131.25 133.21 Z" />
<path fill="#ffffff" opacity="1.00" d=" M 151.21 133.39 C 151.90 133.72 151.90 133.72 151.21 133.39 Z" />
<path fill="#ffffff" opacity="1.00" d=" M 191.28 133.22 C 191.73 133.85 191.73 133.85 191.28 133.22 Z" />
<path fill="#ffffff" opacity="1.00" d=" M 211.27 133.20 C 211.75 133.80 211.75 133.80 211.27 133.20 Z" />
<path fill="#ffffff" opacity="1.00" d=" M 251.37 133.19 C 251.77 133.84 251.77 133.84 251.37 133.19 Z" />
<path fill="#ffffff" opacity="1.00" d=" M 271.28 133.30 C 271.83 133.83 271.83 133.83 271.28 133.30 Z" />
<path fill="#ffffff" opacity="1.00" d=" M 311.30 133.24 C 311.85 133.77 311.85 133.77 311.30 133.24 Z" />
<path fill="#ffffff" opacity="1.00" d=" M 351.31 133.23 C 351.75 133.85 351.75 133.85 351.31 133.23 Z" />
<path fill="#ffffff" opacity="1.00" d=" M 371.28 133.29 C 371.81 133.84 371.81 133.84 371.28 133.29 Z" />
<path fill="#ffffff" opacity="1.00" d=" M 391.26 133.22 C 391.71 133.83 391.71 133.83 391.26 133.22 Z" />
<path fill="#ffffff" opacity="1.00" d=" M 431.23 133.27 C 431.76 133.82 431.76 133.82 431.23 133.27 Z" />
<path fill="#ffffff" opacity="1.00" d=" M 491.24 133.28 C 491.88 133.69 491.88 133.69 491.24 133.28 Z" />
<path fill="#ffffff" opacity="1.00" d=" M 44.38 145.52 C 46.19 144.72 49.36 145.13 49.68 147.48 C 51.21 150.69 47.06 154.17 44.16 152.15 C 41.62 150.75 41.89 146.82 44.38 145.52 Z" />
<path fill="#ffffff" opacity="1.00" d=" M 88.47 147.40 C 89.62 144.02 95.22 144.61 95.68 148.15 C 96.44 151.07 93.39 152.34 91.37 153.52 C 89.77 151.89 87.25 150.02 88.47 147.40 Z" />
<path fill="#ffffff" opacity="1.00" d=" M 11.30 153.21 C 11.75 153.83 11.75 153.83 11.30 153.21 Z" />
<path fill="#ffffff" opacity="1.00" d=" M 31.19 153.23 C 31.73 153.78 31.73 153.78 31.19 153.23 Z" />
<path fill="#ffffff" opacity="1.00" d=" M 51.22 153.35 C 51.81 153.83 51.81 153.83 51.22 153.35 Z" />
<path fill="#ffffff" opacity="1.00" d=" M 71.21 153.36 C 71.85 153.78 71.85 153.78 71.21 153.36 Z" />
<path fill="#ffffff" opacity="1.00" d=" M 111.25 153.29 C 111.79 153.83 111.79 153.83 111.25 153.29 Z" />
<path fill="#ffffff" opacity="1.00" d=" M 131.21 153.29 C 131.76 153.83 131.76 153.83 131.21 153.29 Z" />
<path fill="#ffffff" opacity="1.00" d=" M 151.33 153.26 C 151.76 153.89 151.76 153.89 151.33 153.26 Z" />
<path fill="#ffffff" opacity="1.00" d=" M 171.30 153.29 C 171.87 153.80 171.87 153.80 171.30 153.29 Z" />
<path fill="#ffffff" opacity="1.00" d=" M 191.21 153.29 C 191.83 153.74 191.83 153.74 191.21 153.29 Z" />
<path fill="#ffffff" opacity="1.00" d=" M 211.30 153.21 C 211.67 153.88 211.67 153.88 211.30 153.21 Z" />
<path fill="#ffffff" opacity="1.00" d=" M 231.27 153.22 C 231.73 153.83 231.73 153.83 231.27 153.22 Z" />
<path fill="#ffffff" opacity="1.00" d=" M 251.24 153.24 C 251.73 153.83 251.73 153.83 251.24 153.24 Z" />
<path fill="#ffffff" opacity="1.00" d=" M 271.29 153.21 C 271.81 153.77 271.81 153.77 271.29 153.21 Z" />
<path fill="#ffffff" opacity="1.00" d=" M 291.26 153.25 C 291.81 153.78 291.81 153.78 291.26 153.25 Z" />
<path fill="#ffffff" opacity="1.00" d=" M 311.34 153.22 C 311.84 153.80 311.84 153.80 311.34 153.22 Z" />
<path fill="#ffffff" opacity="1.00" d=" M 331.25 153.28 C 331.80 153.80 331.80 153.80 331.25 153.28 Z" />
<path fill="#ffffff" opacity="1.00" d=" M 351.26 153.22 C 351.74 153.82 351.74 153.82 351.26 153.22 Z" />
<path fill="#ffffff" opacity="1.00" d=" M 371.19 153.30 C 371.83 153.72 371.83 153.72 371.19 153.30 Z" />
<path fill="#ffffff" opacity="1.00" d=" M 391.29 153.22 C 391.80 153.79 391.80 153.79 391.29 153.22 Z" />
<path fill="#ffffff" opacity="1.00" d=" M 411.22 153.27 C 411.80 153.77 411.80 153.77 411.22 153.27 Z" />
<path fill="#ffffff" opacity="1.00" d=" M 431.20 153.25 C 431.80 153.72 431.80 153.72 431.20 153.25 Z" />
<path fill="#ffffff" opacity="1.00" d=" M 451.28 153.20 C 451.67 153.85 451.67 153.85 451.28 153.20 Z" />
<path fill="#ffffff" opacity="1.00" d=" M 471.30 153.21 C 471.77 153.81 471.77 153.81 471.30 153.21 Z" />
<path fill="#ffffff" opacity="1.00" d=" M 491.20 153.26 C 491.81 153.72 491.81 153.72 491.20 153.26 Z" />
<path fill="#ffffff" opacity="1.00" d=" M 511.24 153.25 C 511.77 153.80 511.77 153.80 511.24 153.25 Z" />
<path fill="#ffffff" opacity="1.00" d=" M 27.19 159.30 C 33.05 157.77 39.68 155.40 45.56 157.85 C 42.60 159.44 39.16 158.89 35.95 159.40 C 32.22 159.76 28.75 161.28 25.13 162.13 C 22.72 160.77 26.17 159.71 27.19 159.30 Z" />
<path fill="#ffffff" opacity="1.00" d=" M 68.44 160.77 C 70.26 161.56 72.02 162.55 73.94 163.06 C 75.51 162.65 77.03 161.61 78.70 162.11 C 78.13 162.84 76.99 164.30 76.42 165.04 C 73.80 165.52 71.34 164.70 69.07 163.45 C 65.88 165.32 61.86 165.04 59.05 162.60 C 59.22 160.12 62.20 162.23 63.57 162.31 C 65.45 163.33 67.01 161.80 68.44 160.77 Z" />
<path fill="#ffffff" opacity="1.00" d=" M 11.26 173.31 C 11.85 173.79 11.85 173.79 11.26 173.31 Z" />
<path fill="#ffffff" opacity="1.00" d=" M 31.29 173.19 C 31.71 173.83 31.71 173.83 31.29 173.19 Z" />
<path fill="#ffffff" opacity="1.00" d=" M 51.21 173.25 C 51.79 173.76 51.79 173.76 51.21 173.25 Z" />
<path fill="#ffffff" opacity="1.00" d=" M 71.20 173.37 C 71.85 173.78 71.85 173.78 71.20 173.37 Z" />
<path fill="#ffffff" opacity="1.00" d=" M 91.27 173.22 C 91.78 173.78 91.78 173.78 91.27 173.22 Z" />
<path fill="#ffffff" opacity="1.00" d=" M 131.28 173.24 C 131.76 173.84 131.76 173.84 131.28 173.24 Z" />
<path fill="#ffffff" opacity="1.00" d=" M 151.20 173.32 C 151.83 173.75 151.83 173.75 151.20 173.32 Z" />
<path fill="#ffffff" opacity="1.00" d=" M 171.26 173.29 C 171.81 173.82 171.81 173.82 171.26 173.29 Z" />
<path fill="#ffffff" opacity="1.00" d=" M 191.25 173.24 C 191.80 173.77 191.80 173.77 191.25 173.24 Z" />
<path fill="#ffffff" opacity="1.00" d=" M 211.21 173.29 C 211.77 173.81 211.77 173.81 211.21 173.29 Z" />
<path fill="#ffffff" opacity="1.00" d=" M 231.33 173.18 C 231.70 173.84 231.70 173.84 231.33 173.18 Z" />
<path fill="#ffffff" opacity="1.00" d=" M 251.32 173.21 C 251.87 173.74 251.87 173.74 251.32 173.21 Z" />
<path fill="#ffffff" opacity="1.00" d=" M 271.34 173.23 C 271.74 173.88 271.74 173.88 271.34 173.23 Z" />
<path fill="#ffffff" opacity="1.00" d=" M 291.27 173.29 C 291.76 173.87 291.76 173.87 291.27 173.29 Z" />
<path fill="#ffffff" opacity="1.00" d=" M 311.27 173.20 C 311.78 173.77 311.78 173.77 311.27 173.20 Z" />
<path fill="#ffffff" opacity="1.00" d=" M 331.19 173.30 C 331.79 173.78 331.79 173.78 331.19 173.30 Z" />
<path fill="#ffffff" opacity="1.00" d=" M 351.19 173.29 C 351.78 173.78 351.78 173.78 351.19 173.29 Z" />
<path fill="#ffffff" opacity="1.00" d=" M 371.25 173.29 C 371.74 173.88 371.74 173.88 371.25 173.29 Z" />
<path fill="#ffffff" opacity="1.00" d=" M 391.23 173.25 C 391.77 173.79 391.77 173.79 391.23 173.25 Z" />
<path fill="#ffffff" opacity="1.00" d=" M 411.21 173.21 C 411.72 173.78 411.72 173.78 411.21 173.21 Z" />
<path fill="#ffffff" opacity="1.00" d=" M 431.22 173.29 C 431.73 173.85 431.73 173.85 431.22 173.29 Z" />
<path fill="#ffffff" opacity="1.00" d=" M 451.26 173.17 C 451.76 173.75 451.76 173.75 451.26 173.17 Z" />
<path fill="#ffffff" opacity="1.00" d=" M 471.18 173.26 C 471.72 173.80 471.72 173.80 471.18 173.26 Z" />
<path fill="#ffffff" opacity="1.00" d=" M 491.19 173.31 C 491.84 173.70 491.84 173.70 491.19 173.31 Z" />
<path fill="#ffffff" opacity="1.00" d=" M 511.22 173.32 C 511.83 173.78 511.83 173.78 511.22 173.32 Z" />
<path fill="#ffffff" opacity="1.00" d=" M 11.20 193.33 C 11.84 193.76 11.84 193.76 11.20 193.33 Z" />
<path fill="#ffffff" opacity="1.00" d=" M 31.25 193.27 C 31.84 193.76 31.84 193.76 31.25 193.27 Z" />
<path fill="#ffffff" opacity="1.00" d=" M 51.23 193.24 C 51.76 193.79 51.76 193.79 51.23 193.24 Z" />
<path fill="#ffffff" opacity="1.00" d=" M 71.35 193.21 C 71.74 193.87 71.74 193.87 71.35 193.21 Z" />
<path fill="#ffffff" opacity="1.00" d=" M 91.19 193.30 C 91.74 193.84 91.74 193.84 91.19 193.30 Z" />
<path fill="#ffffff" opacity="1.00" d=" M 111.30 193.23 C 111.81 193.81 111.81 193.81 111.30 193.23 Z" />
<path fill="#ffffff" opacity="1.00" d=" M 131.28 193.29 C 131.83 193.82 131.83 193.82 131.28 193.29 Z" />
<path fill="#ffffff" opacity="1.00" d=" M 151.20 193.29 C 151.79 193.78 151.79 193.78 151.20 193.29 Z" />
<path fill="#ffffff" opacity="1.00" d=" M 171.24 193.26 C 171.76 193.82 171.76 193.82 171.24 193.26 Z" />
<path fill="#ffffff" opacity="1.00" d=" M 191.30 193.26 C 191.74 193.89 191.74 193.89 191.30 193.26 Z" />
<path fill="#ffffff" opacity="1.00" d=" M 211.32 193.26 C 211.82 193.84 211.82 193.84 211.32 193.26 Z" />
<path fill="#ffffff" opacity="1.00" d=" M 231.26 193.31 C 231.89 193.74 231.89 193.74 231.26 193.31 Z" />
<path fill="#ffffff" opacity="1.00" d=" M 251.25 193.24 C 251.79 193.77 251.79 193.77 251.25 193.24 Z" />
<path fill="#ffffff" opacity="1.00" d=" M 271.29 193.26 C 271.78 193.84 271.78 193.84 271.29 193.26 Z" />
<path fill="#ffffff" opacity="1.00" d=" M 291.20 193.29 C 291.83 193.72 291.83 193.72 291.20 193.29 Z" />
<path fill="#ffffff" opacity="1.00" d=" M 311.25 193.22 C 311.78 193.78 311.78 193.78 311.25 193.22 Z" />
<path fill="#ffffff" opacity="1.00" d=" M 331.31 193.24 C 331.77 193.86 331.77 193.86 331.31 193.24 Z" />
<path fill="#ffffff" opacity="1.00" d=" M 351.31 193.29 C 351.86 193.82 351.86 193.82 351.31 193.29 Z" />
<path fill="#ffffff" opacity="1.00" d=" M 371.22 193.20 C 371.80 193.69 371.80 193.69 371.22 193.20 Z" />
<path fill="#ffffff" opacity="1.00" d=" M 391.36 193.19 C 391.71 193.86 391.71 193.86 391.36 193.19 Z" />
<path fill="#ffffff" opacity="1.00" d=" M 411.39 193.18 C 411.74 193.86 411.74 193.86 411.39 193.18 Z" />
<path fill="#ffffff" opacity="1.00" d=" M 431.25 193.23 C 431.81 193.75 431.81 193.75 431.25 193.23 Z" />
<path fill="#ffffff" opacity="1.00" d=" M 451.25 193.25 C 451.77 193.81 451.77 193.81 451.25 193.25 Z" />
<path fill="#ffffff" opacity="1.00" d=" M 471.18 193.24 C 471.74 193.76 471.74 193.76 471.18 193.24 Z" />
<path fill="#ffffff" opacity="1.00" d=" M 491.25 193.22 C 491.71 193.82 491.71 193.82 491.25 193.22 Z" />
<path fill="#ffffff" opacity="1.00" d=" M 511.30 193.26 C 511.80 193.83 511.80 193.83 511.30 193.26 Z" />
</g>
</svg>
